# xmcd
#
# Track frame offsets: 
#        150
#        17885
#        33412
#        49622
#        65003
#        81533
#        96482
#        111180
#        125139
#        138545
#        152456
#        163030
#        178525
#        192404
#
# Disc length: 2775 seconds
#
# Revision: 0
# Processed by: cddbd v1.5.2PL0 Copyright (c) Steve Scherf et al.
# Submitted via: ExactAudioCopy v0.99pb4
#
DISCID=c90ad50e
DTITLE=The Bosshoss - DO OR DIE
DYEAR=2009
DGENRE=Country
TTITLE0=Last Day (Do Or Die)
TTITLE1=Eagleize It
TTITLE2=Boon And Bain
TTITLE3=Jelly Bean
TTITLE4=Break Free
TTITLE5=21st Century Buttkickin' Love Affair
TTITLE6=Go! Go! Go!
TTITLE7=Rock On Rock
TTITLE8=Wolf Call
TTITLE9=Close
TTITLE10=Quick Joey Small
TTITLE11=Shake Your Hips
TTITLE12=Guitars And Cars
TTITLE13=Crazy About Mary
EXTD=
EXTT0=
EXTT1=
EXTT2=
EXTT3=
EXTT4=
EXTT5=
EXTT6=
EXTT7=
EXTT8=
EXTT9=
EXTT10=
EXTT11=
EXTT12=
EXTT13=
PLAYORDER=
